<svg xmlns="http://www.w3.org/2000/svg" width="1000" height="1000" viewBox="0 0 1000 1000"><g id="aebe7146-b878-4ccd-ad60-4fe63cc24cb5" data-name="icon"><path d="M500,913.94a322.38,322.38,0,0,1-177.37,14.28,321.3,321.3,0,0,0,354.73,0A322.34,322.34,0,0,1,500,913.94" style="fill:#ffd2de"/><path d="M500,18.39a319.6,319.6,0,0,0-177.38,53.4A322.41,322.41,0,0,1,500,86.07,322.41,322.41,0,0,1,677.38,71.79,319.52,319.52,0,0,0,500,18.39" style="fill:#d6f2f1"/><path d="M71.78,677.37A321.33,321.33,0,0,0,322.63,928.22,322.35,322.35,0,0,1,207.3,792.71,322.4,322.4,0,0,1,71.78,677.37" style="fill:#f4d1d1"/><path d="M207.3,792.71A322.35,322.35,0,0,0,322.63,928.22,322.38,322.38,0,0,0,500,913.94a319.79,319.79,0,0,1-113.52-73.39q-10-10-19-20.68-13.86,1.2-28.05,1.21A320,320,0,0,1,207.3,792.71" style="fill:#f4abb7"/><path d="M677.38,71.79A322.39,322.39,0,0,1,792.7,207.3,322.45,322.45,0,0,1,928.21,322.62,321.28,321.28,0,0,0,677.38,71.79" style="fill:#d6ebf3"/><path d="M613.52,65.41A321.71,321.71,0,0,0,500,86.07a319.87,319.87,0,0,1,113.51,73.38q10,10,19,20.68,13.86-1.19,28-1.2A319.91,319.91,0,0,1,792.7,207.3,322.39,322.39,0,0,0,677.38,71.79a322.88,322.88,0,0,0-63.86-6.38" style="fill:#b2e0e7"/><path d="M71.78,322.63a321.32,321.32,0,0,0,0,354.74A322.41,322.41,0,0,1,86.06,500,322.4,322.4,0,0,1,71.78,322.63" style="fill:#d3dff3"/><path d="M86.06,500A322.41,322.41,0,0,0,71.78,677.37,322.4,322.4,0,0,0,207.3,792.71a320,320,0,0,1-28.38-132.17q0-14.17,1.21-28-10.65-9-20.68-19A319.79,319.79,0,0,1,86.06,500" style="fill:#d6c3d7"/><path d="M180.13,632.49q-1.2,13.88-1.21,28A320,320,0,0,0,207.3,792.71a320,320,0,0,0,132.16,28.37q14.18,0,28.05-1.21a319,319,0,0,1-64.17-123.2,319.17,319.17,0,0,1-123.21-64.18" style="fill:#d6a2c2"/><path d="M928.21,322.62A322.34,322.34,0,0,1,913.94,500a322.38,322.38,0,0,1,14.27,177.39,321.32,321.32,0,0,0,0-354.77" style="fill:#d3dff3"/><path d="M792.7,207.3a320.07,320.07,0,0,1,28.37,132.17q0,14.17-1.21,28,10.65,9,20.69,19A320,320,0,0,1,913.94,500a322.34,322.34,0,0,0,14.27-177.38A322.45,322.45,0,0,0,792.7,207.3" style="fill:#b1cde8"/><path d="M660.53,178.93q-14.16,0-28,1.2a319.36,319.36,0,0,1,64.17,123.21,318.91,318.91,0,0,1,123.2,64.17q1.2-13.86,1.21-28A320.07,320.07,0,0,0,792.7,207.3a319.91,319.91,0,0,0-132.17-28.37" style="fill:#93c4df"/><path d="M322.62,71.79A321.3,321.3,0,0,0,71.78,322.63,322.48,322.48,0,0,1,207.29,207.3,322.41,322.41,0,0,1,322.62,71.79" style="fill:#d6ebf3"/><path d="M386.48,65.41a322.88,322.88,0,0,0-63.86,6.38A322.41,322.41,0,0,0,207.29,207.3a320.1,320.1,0,0,1,132.17-28.37q14.18,0,28.05,1.2,9-10.65,19-20.68A319.9,319.9,0,0,1,500,86.07,321.71,321.71,0,0,0,386.48,65.41" style="fill:#b2e0e7"/><path d="M500,86.07a319.9,319.9,0,0,0-113.52,73.38q-10,10-19,20.68A319.19,319.19,0,0,1,500,221.88a319.15,319.15,0,0,1,132.49-41.75q-9-10.65-19-20.68A319.87,319.87,0,0,0,500,86.07" style="fill:#95d2de"/><path d="M207.29,207.3A322.48,322.48,0,0,0,71.78,322.63,322.4,322.4,0,0,0,86.06,500a319.76,319.76,0,0,1,73.39-113.51q10-10,20.68-19-1.2-13.86-1.21-28A320.07,320.07,0,0,1,207.29,207.3" style="fill:#b1cfe8"/><path d="M339.46,178.93A320.1,320.1,0,0,0,207.29,207.3a320.07,320.07,0,0,0-28.37,132.17q0,14.17,1.21,28a319.29,319.29,0,0,1,123.21-64.17,319.09,319.09,0,0,1,64.17-123.21q-13.86-1.19-28.05-1.2" style="fill:#93c7df"/><path d="M180.13,367.51q-10.65,9-20.68,19A319.76,319.76,0,0,0,86.06,500a319.79,319.79,0,0,0,73.39,113.52q10,10,20.68,19A319.18,319.18,0,0,1,221.87,500a319.09,319.09,0,0,1-41.74-132.49" style="fill:#b4b8d1"/><path d="M221.87,500a319.18,319.18,0,0,0-41.74,132.49,319.17,319.17,0,0,0,123.21,64.18,322.63,322.63,0,0,1-9.68-111.2A322.48,322.48,0,0,1,221.87,500" style="fill:#b9a4c5"/><path d="M303.34,303.34a319.29,319.29,0,0,0-123.21,64.17A319.09,319.09,0,0,0,221.87,500a322.59,322.59,0,0,1,71.79-85.46,322.63,322.63,0,0,1,9.68-111.2" style="fill:#9ab1c9"/><path d="M293.66,414.54A322.59,322.59,0,0,0,221.87,500a322.48,322.48,0,0,0,71.79,85.47A321.27,321.27,0,0,1,313.09,500a321.2,321.2,0,0,1-19.43-85.46" style="fill:#a0a0c0"/><path d="M367.51,180.13a319.09,319.09,0,0,0-64.17,123.21,322.48,322.48,0,0,1,83.14-10.89q14,0,28,1.22A322.45,322.45,0,0,1,500,221.88a319.19,319.19,0,0,0-132.49-41.75" style="fill:#7bbbd8"/><path d="M386.48,292.45a322.48,322.48,0,0,0-83.14,10.89,322.63,322.63,0,0,0-9.68,111.2,321.33,321.33,0,0,1,74.17-46.7,321.33,321.33,0,0,1,46.7-74.17q-14-1.23-28-1.22" style="fill:#81a9c6"/><path d="M367.83,367.84a321.33,321.33,0,0,0-74.17,46.7A321.2,321.2,0,0,0,313.09,500a319.27,319.27,0,0,1,32.72-63.86,318.77,318.77,0,0,1,22-68.3" style="fill:#869abe"/><path d="M632.49,180.13A319.15,319.15,0,0,0,500,221.88a322.6,322.6,0,0,1,85.47,71.79q14-1.23,28-1.22a322.53,322.53,0,0,1,83.14,10.89,319.36,319.36,0,0,0-64.17-123.21" style="fill:#7bbbd8"/><path d="M500,221.88a322.45,322.45,0,0,0-85.47,71.79A321.18,321.18,0,0,1,500,313.1a321.18,321.18,0,0,1,85.47-19.43A322.6,322.6,0,0,0,500,221.88" style="fill:#69a7d2"/><path d="M414.53,293.67a321.33,321.33,0,0,0-46.7,74.17,319.33,319.33,0,0,1,68.3-22A318.56,318.56,0,0,1,500,313.1a321.18,321.18,0,0,0-85.47-19.43" style="fill:#6b98c3"/><path d="M436.13,345.82a319.33,319.33,0,0,0-68.3,22,318.77,318.77,0,0,0-22,68.3,324.35,324.35,0,0,1,90.32-90.32" style="fill:#708dbc"/><path d="M928.21,677.39A322.42,322.42,0,0,1,792.69,792.71,322.35,322.35,0,0,1,677.36,928.22,321.3,321.3,0,0,0,928.21,677.39" style="fill:#f4d1d1"/><path d="M792.69,792.71a319.83,319.83,0,0,1-132.16,28.37q-14.16,0-28-1.21-9,10.65-19,20.68A319.76,319.76,0,0,1,500,913.94a322.34,322.34,0,0,0,177.36,14.28A322.35,322.35,0,0,0,792.69,792.71" style="fill:#f4abb7"/><path d="M500,778.13a319.18,319.18,0,0,1-132.49,41.74q9,10.65,19,20.68A319.79,319.79,0,0,0,500,913.94a319.76,319.76,0,0,0,113.51-73.39q10-10,19-20.68A319.14,319.14,0,0,1,500,778.13" style="fill:#ea8c95"/><path d="M303.34,696.67a319,319,0,0,0,64.17,123.2A319.18,319.18,0,0,0,500,778.13a322.63,322.63,0,0,1-85.47-71.79q-14,1.23-28,1.22a322.48,322.48,0,0,1-83.14-10.89" style="fill:#d1849f"/><path d="M913.94,500a320.07,320.07,0,0,1-73.39,113.52q-10,10-20.69,19,1.2,13.86,1.21,28a320,320,0,0,1-28.38,132.17A322.42,322.42,0,0,0,928.21,677.39,322.38,322.38,0,0,0,913.94,500" style="fill:#d9bed1"/><path d="M819.86,632.5a319,319,0,0,1-123.2,64.17,319.25,319.25,0,0,1-64.17,123.2q13.86,1.2,28,1.21a319.83,319.83,0,0,0,132.16-28.37,320,320,0,0,0,28.38-132.17q0-14.17-1.21-28" style="fill:#d99fb9"/><path d="M696.66,696.67a322.53,322.53,0,0,1-83.14,10.89q-14,0-28-1.22A322.79,322.79,0,0,1,500,778.13a319.14,319.14,0,0,0,132.49,41.74,319.25,319.25,0,0,0,64.17-123.2" style="fill:#d1849f"/><path d="M819.86,367.51A319,319,0,0,1,778.12,500a319,319,0,0,1,41.74,132.5q10.65-9,20.69-19A320.07,320.07,0,0,0,913.94,500a320,320,0,0,0-73.39-113.51q-10-10-20.69-19" style="fill:#c0b3cb"/><path d="M778.12,500a322.29,322.29,0,0,1-71.79,85.47,322.38,322.38,0,0,1-9.67,111.2,319,319,0,0,0,123.2-64.17A319,319,0,0,0,778.12,500" style="fill:#c49cbc"/><path d="M696.66,303.34a322.38,322.38,0,0,1,9.67,111.2A322.4,322.4,0,0,1,778.12,500a319,319,0,0,0,41.74-132.49,318.91,318.91,0,0,0-123.2-64.17" style="fill:#a7aec3"/><path d="M706.33,414.54A321.11,321.11,0,0,1,686.9,500a321.27,321.27,0,0,1,19.43,85.47A322.29,322.29,0,0,0,778.12,500a322.4,322.4,0,0,0-71.79-85.46" style="fill:#ae9db9"/><path d="M706.33,585.47a320.91,320.91,0,0,1-74.17,46.7,321.42,321.42,0,0,1-46.69,74.17q14,1.23,28,1.22a322.53,322.53,0,0,0,83.14-10.89,322.38,322.38,0,0,0,9.67-111.2" style="fill:#bd89a5"/><path d="M686.9,500a318,318,0,0,1-32.72,63.87,319.33,319.33,0,0,1-22,68.3,320.91,320.91,0,0,0,74.17-46.7A321.27,321.27,0,0,0,686.9,500" style="fill:#ae8ba6"/><path d="M500,686.91a321.18,321.18,0,0,1-85.47,19.43A322.63,322.63,0,0,0,500,778.13a322.79,322.79,0,0,0,85.47-71.79A321.18,321.18,0,0,1,500,686.91" style="fill:#bd80a8"/><path d="M632.16,632.17a318.59,318.59,0,0,1-68.3,22A318.75,318.75,0,0,1,500,686.91a321.18,321.18,0,0,0,85.47,19.43,321.42,321.42,0,0,0,46.69-74.17" style="fill:#ad82ad"/><path d="M654.18,563.87a324.35,324.35,0,0,1-90.32,90.32,318.59,318.59,0,0,0,68.3-22,319.33,319.33,0,0,0,22-68.3" style="fill:#9980a8"/><path d="M293.66,585.47a322.63,322.63,0,0,0,9.68,111.2,322.48,322.48,0,0,0,83.14,10.89q14,0,28-1.22a321,321,0,0,1-46.69-74.17,321.18,321.18,0,0,1-74.18-46.7" style="fill:#bd8ba5"/><path d="M313.09,500a321.27,321.27,0,0,0-19.43,85.47,321.18,321.18,0,0,0,74.18,46.7,318.8,318.8,0,0,1-22-68.3A318.56,318.56,0,0,1,313.09,500" style="fill:#af8ba6"/><path d="M345.81,436.14A319.27,319.27,0,0,0,313.09,500a318.56,318.56,0,0,0,32.72,63.87,324.34,324.34,0,0,1,0-127.73" style="fill:#998ba8"/><path d="M613.52,292.45q-14,0-28,1.22a321.42,321.42,0,0,1,46.69,74.17,320.91,320.91,0,0,1,74.17,46.7,322.38,322.38,0,0,0-9.67-111.2,322.53,322.53,0,0,0-83.14-10.89" style="fill:#94a4bd"/><path d="M632.16,367.84a318.59,318.59,0,0,1,22,68.3A318.23,318.23,0,0,1,686.9,500a321.11,321.11,0,0,0,19.43-85.46,320.91,320.91,0,0,0-74.17-46.7" style="fill:#9998b5"/><path d="M654.18,436.14a324.34,324.34,0,0,1,0,127.73A318,318,0,0,0,686.9,500a318.23,318.23,0,0,0-32.72-63.86" style="fill:#998ba8"/><path d="M367.84,632.17a321,321,0,0,0,46.69,74.17A321.18,321.18,0,0,0,500,686.91a318.56,318.56,0,0,1-63.87-32.72,319.07,319.07,0,0,1-68.29-22" style="fill:#ad85ad"/><path d="M345.81,563.87a318.8,318.8,0,0,0,22,68.3,319.07,319.07,0,0,0,68.29,22,324.35,324.35,0,0,1-90.32-90.32" style="fill:#9984a9"/><path d="M585.47,293.67A321.18,321.18,0,0,0,500,313.1a318.23,318.23,0,0,1,63.86,32.72,318.59,318.59,0,0,1,68.3,22,321.42,321.42,0,0,0-46.69-74.17" style="fill:#8295b9"/><path d="M563.86,345.82a324.35,324.35,0,0,1,90.32,90.32,318.59,318.59,0,0,0-22-68.3,318.59,318.59,0,0,0-68.3-22" style="fill:#868ab2"/><path d="M436.13,654.19A318.56,318.56,0,0,0,500,686.91a318.75,318.75,0,0,0,63.86-32.72,324.34,324.34,0,0,1-127.73,0" style="fill:#9981aa"/><path d="M500,313.1a318.56,318.56,0,0,0-63.87,32.72,324.34,324.34,0,0,1,127.73,0A318.23,318.23,0,0,0,500,313.1" style="fill:#8789ac"/><path d="M500,339.47a322.35,322.35,0,0,0-63.87,6.35,324.35,324.35,0,0,0-90.32,90.32,324.34,324.34,0,0,0,0,127.73,324.35,324.35,0,0,0,90.32,90.32,324.34,324.34,0,0,0,127.73,0,324.35,324.35,0,0,0,90.32-90.32,324.34,324.34,0,0,0,0-127.73,324.35,324.35,0,0,0-90.32-90.32A322.18,322.18,0,0,0,500,339.47" style="fill:#8a7ea6"/></g></svg>